#!OML:ASF E:\id_vita\Project 1\Capture day 1\Session 1\Female.ASF
:FULLY-SPECIFIED
:DEGREES
1208
root 23.9819 15.4276 2.19414 680.388 -83.2837 -625.133
lowerback 17.4682 -1.25515 -6.01566
upperback 5.94629 -2.73758 3.13349
thorax -2.93881 -1.52229 7.31253
lowerneck -5.63023 1.99914 -1.52461
upperneck -36.8542 1.54227 2.99988
head -11.1239 -0.673546 1.53637
rclavicle -1.43125e-014 8.49804e-015
rhumerus -7.17595 39.5037 -95.1492
rradius 101.139
rwrist -19.3621
rhand -29.6444 -10.5128
rfingers 7.12502
rthumb -2.97404 -40.4718
lclavicle -1.43125e-014 8.49804e-015
lhumerus 58.0192 -14.4911 94.261
lradius 18.0313
lwrist -0.295273
lhand 7.7571 43.6065
lfingers 7.12502
lthumb 32.996 70.6075
rfemur -91.425 -4.10923 53.5479
rtibia 30.1361
rfoot -0.492138 21.0549
rtoes 30.2282
lfemur -74.6617 1.99427 -40.7958
ltibia 69.3251
lfoot -7.47287 -17.8083
ltoes -2.05629
1209
root 24.0706 15.3805 2.19233 680.146 -83.1738 -624.782
lowerback 17.3623 -1.27062 -5.92827
upperback 5.87763 -2.73611 3.08122
thorax -2.96485 -1.51512 7.20106
lowerneck -5.71848 1.9824 -1.39102
upperneck -36.7553 1.47928 2.85199
head -11.0624 -0.699883 1.45824
rclavicle 4.87022e-014 4.78326e-014
rhumerus -7.04082 39.4567 -95.1762
rradius 101.104
rwrist -19.3077
rhand -29.9603 -10.0159
rfingers 7.12502
rthumb -3.27912 -39.9704
lclavicle 4.87022e-014 4.78326e-014
lhumerus 58.217 -14.8781 93.4988
lradius 18.3587
lwrist 0.425944
lhand 7.68388 44.0857
lfingers 7.12502
lthumb 32.9264 71.1014
rfemur -92.0275 -3.93242 53.8644
rtibia 30.2661
rfoot -0.0499559 21.4162
rtoes 30.8196
lfemur -74.3733 1.53311 -40.9368
ltibia 68.7742
lfoot -8.82483 -17.1545
ltoes -0.23716
1210
root 24.1636 15.3458 2.18641 679.701 -83.1573 -624.431
lowerback 17.4536 -1.26681 -5.841
upperback 5.90644 -2.72546 3.0387
thorax -2.99139 -1.50952 7.10659
lowerneck -5.33303 2.10581 -1.59223
upperneck -37.1584 1.65709 2.8352
head -11.3094 -0.600023 1.48595
rclavicle -4.27387e-014 -1.00386e-014
rhumerus -6.85602 39.5012 -95.1829
rradius 101.172
rwrist -19.3179
rhand -30.5307 -9.62309
rfingers 7.12502
rthumb -3.82999 -39.5684
lclavicle -4.27387e-014 -1.00386e-014
lhumerus 58.5804 -15.1912 92.6568
lradius 18.6093
lwrist 1.24273
lhand 7.88692 44.1568
lfingers 7.12502
lthumb 33.1195 71.1317
rfemur -92.3638 -3.79581 54.184
rtibia 30.3956
rfoot 0.280822 21.7151
rtoes 30.9585
lfemur -73.946 1.31136 -41.0329
ltibia 68.2285
lfoot -10.6276 -16.5183
ltoes 0.496028
1211
root 24.2579 15.311 2.17973 679.338 -83.1246 -624.04
lowerback 17.4145 -1.30637 -5.80785
upperback 5.90661 -2.76906 3.03793
thorax -2.96541 -1.53159 7.09224
lowerneck -6.10369 2.10654 -1.36839
upperneck -36.5032 1.57241 2.54419
head -10.8884 -0.61635 1.32555
rclavicle -3.61788e-014 5.04913e-014
rhumerus -6.63823 39.6851 -95.1723
rradius 101.211
rwrist -19.247
rhand -30.741 -9.4505
rfingers 7.12502
rthumb -4.03304 -39.3921
lclavicle -3.61788e-014 5.04913e-014
lhumerus 58.808 -15.3274 91.9387
lradius 18.9471
lwrist 1.98573
lhand 8.19032 44.2469
lfingers 7.12502
lthumb 33.408 71.1602
rfemur -92.8141 -3.61685 54.67
rtibia 30.4764
rfoot 0.54553 22.1469
rtoes 30.8319
lfemur -73.7015 1.09959 -41.1755
ltibia 67.7435
lfoot -12.6154 -15.785
ltoes 0.314498
1212
root 24.3521 15.2702 2.17676 679.249 -83.0567 -623.973
lowerback 17.3187 -1.34122 -5.73918
upperback 5.96777 -2.80069 3.03477
thorax -2.84848 -1.55423 7.04701
lowerneck -6.42735 2.10907 -1.36131
upperneck -36.2541 1.54619 2.44996
head -10.7266 -0.611768 1.28508
rclavicle 3.29983e-014 -6.26172e-015
rhumerus -6.27108 39.8558 -94.9855
rradius 101.246
rwrist -19.3002
rhand -30.8014 -9.58128
rfingers 7.12502
rthumb -4.09132 -39.5217
lclavicle 3.29983e-014 -6.26172e-015
lhumerus 59.0942 -15.4669 91.3496
lradius 19.2746
lwrist 2.65927
lhand 8.32329 44.4484
lfingers 7.12502
lthumb 33.5344 71.3343
rfemur -93.2519 -3.51813 55.2006
rtibia 30.4821
rfoot 0.923365 22.6821
rtoes 31.1406
lfemur -73.454 0.791412 -41.2857
ltibia 67.3423
lfoot -14.5179 -14.8636
ltoes 0.0783851
1213
root 24.4499 15.2387 2.1724 678.783 -83.0417 -623.754
lowerback 17.5083 -1.30417 -5.63049
upperback 6.06373 -2.75186 3.00696
thorax -2.86144 -1.53433 6.95269
lowerneck -6.27915 2.09788 -1.3469
upperneck -36.3826 1.51565 2.39306
head -10.8046 -0.625656 1.26632
rclavicle -3.21037e-014 -3.10353e-014
rhumerus -5.93492 39.8544 -94.729
rradius 101.348
rwrist -19.45
rhand -30.8017 -9.51714
rfingers 7.12502
rthumb -4.09165 -39.4576
lclavicle -3.21037e-014 -3.10353e-014
lhumerus 59.3811 -15.6623 90.9026
lradius 19.5598
lwrist 3.39264
lhand 7.61585 44.2417
lfingers 7.12502
lthumb 32.8617 71.271
rfemur -93.4392 -3.49375 55.5992
rtibia 30.4903
rfoot 1.37992 23.0636
rtoes 31.7128
lfemur -73.0482 0.565614 -41.3405
ltibia 66.9801
lfoot -16.2469 -13.6891
ltoes 0.0349074
1214
root 24.5434 15.2095 2.16299 677.758 -83.0478 -622.93
lowerback 17.6447 -1.26953 -5.6222
upperback 6.13667 -2.71912 2.967
thorax -2.86312 -1.52214 6.9037
lowerneck -5.98622 2.15809 -1.43511
upperneck -36.6099 1.59169 2.3295
head -10.9536 -0.57541 1.25772
rclavicle -3.93594e-014 -9.36524e-014
rhumerus -5.674 39.8618 -94.66
rradius 101.351
rwrist -19.3774
rhand -30.7632 -9.05842
rfingers 7.12502
rthumb -4.05443 -38.9996
lclavicle -3.93594e-014 -9.36524e-014
lhumerus 59.6382 -15.809 90.2813
lradius 19.7699
lwrist 3.98322
lhand 9.55701 45.0929
lfingers 7.12502
lthumb 34.7061 71.7171
rfemur -93.5793 -3.3681 55.7917
rtibia 30.5391
rfoot 1.58815 23.2348
rtoes 31.4807
lfemur -72.7173 0.41588 -41.4399
ltibia 66.6288
lfoot -17.7515 -12.4763
ltoes 0.477656
1215
root 24.6351 15.1643 2.15591 677.508 -82.909 -622.621
lowerback 17.4197 -1.33344 -5.63682
upperback 6.16042 -2.79417 2.92998
thorax -2.70886 -1.56511 6.8718
lowerneck -5.78534 2.21498 -1.57786
upperneck -36.7574 1.67393 2.31624
head -11.0549 -0.517946 1.27512
rclavicle 7.0171e-014 3.56322e-014
rhumerus -5.37225 39.9767 -94.6225
rradius 101.308
rwrist -19.2987
rhand -30.8738 -8.9558
rfingers 7.12502
rthumb -4.1613 -38.8949
lclavicle 7.0171e-014 3.56322e-014
lhumerus 60.0039 -15.9462 89.5382
lradius 19.7735
lwrist 4.17843
lhand 6.18717 42.5777
lfingers 7.12502
lthumb 31.5017 69.8824
rfemur -94.0261 -3.15406 55.7115
rtibia 30.5871
rfoot 2.0178 23.3691
rtoes 31.5932
lfemur -72.6646 0.0627307 -41.6734
ltibia 66.3252
lfoot -19.0947 -11.3171
ltoes 1.0115
1216
root 24.7331 15.1167 2.15182 678.345 -82.6039 -623.258
lowerback 17.14 -1.44636 -5.63376
upperback 6.10463 -2.9203 2.93571
thorax -2.60104 -1.62702 6.8843
lowerneck -6.04237 2.20004 -1.53721
upperneck -36.5394 1.61696 2.20103
head -10.9151 -0.530907 1.22391
rclavicle 3.42904e-014 -1.12562e-014
rhumerus -5.04031 40.0639 -94.3891
rradius 101.358
rwrist -19.316
rhand -30.8252 -9.29419
rfingers 7.12502
rthumb -4.11435 -39.2342
lclavicle 3.42904e-014 -1.12562e-014
lhumerus 60.1981 -15.9712 89.4225
lradius 19.7809
lwrist 3.81649
lhand 5.78732 41.9711
lfingers 7.12502
lthumb 31.1206 69.3495
rfemur -94.7612 -3.00269 55.6058
rtibia 30.6302
rfoot 2.66606 23.6171
rtoes 32.1247
lfemur -72.7919 -0.49807 -42.0256
ltibia 66.0734
lfoot -20.2603 -10.235
ltoes 1.36062
1217
root 24.8338 15.08 2.14429 678.94 -82.4458 -623.891
lowerback 17.11 -1.49398 -5.58857
upperback 6.1286 -2.97322 2.95032
thorax -2.55303 -1.65558 6.88066
lowerneck -6.47547 2.13211 -1.36043
upperneck -36.1551 1.48068 2.07543
head -10.6735 -0.594495 1.14696
rclavicle -4.17448e-014 4.67144e-015
rhumerus -4.65025 40.1245 -94.0759
rradius 101.509
rwrist -19.3107
rhand -30.6932 -9.57259
rfingers 7.12502
rthumb -3.9869 -39.515
lclavicle -4.17448e-014 4.67144e-015
lhumerus 60.3341 -16.1117 89.062
lradius 20.0366
lwrist 4.07264
lhand 5.86065 42.372
lfingers 7.12502
lthumb 31.1905 69.737
rfemur -95.2339 -2.94022 55.8314
rtibia 30.6849
rfoot 3.1112 24.0775
rtoes 31.2193
lfemur -72.796 -0.812594 -42.2906
ltibia 65.8789
lfoot -21.2613 -9.26296
ltoes 1.6553
1218
root 24.9334 15.0446 2.1342 679.316 -82.4559 -624.525
lowerback 17.297 -1.51466 -5.42417
upperback 6.17774 -2.98717 2.9234
thorax -2.60851 -1.66132 6.76857
lowerneck -6.47583 2.0949 -1.36004
upperneck -36.0388 1.44696 2.11625
head -10.6253 -0.606286 1.16072
rclavicle 1.02175e-013 1.44119e-014
rhumerus -4.44991 40.1278 -94.0127
rradius 101.689
rwrist -19.3272
rhand -30.573 -9.73657
rfingers 7.12502
rthumb -3.87077 -39.6812
lclavicle 1.02175e-013 1.44119e-014
lhumerus 60.5126 -16.5481 87.8548
lradius 20.5935
lwrist 5.05642
lhand 5.37139 43.2012
lfingers 7.12502
lthumb 30.7241 70.6549
rfemur -95.4118 -2.90238 56.231
rtibia 30.689
rfoot 3.80877 24.4477
rtoes 30.2917
lfemur -72.6573 -0.951569 -42.3981
ltibia 65.7362
lfoot -22.2464 -8.13478
ltoes 1.72077
1219
root 25.0315 15.0104 2.12768 679.8 -82.3921 -625.235
lowerback 17.4477 -1.55891 -5.26812
upperback 6.23277 -3.03044 2.90059
thorax -2.6332 -1.68285 6.66869
lowerneck -5.84109 2.17959 -1.66164
upperneck -36.5578 1.60029 2.20632
head -10.96 -0.5145 1.24767
rclavicle 1.31198e-014 3.17559e-014
rhumerus -4.26418 40.0954 -93.9843
rradius 101.792
rwrist -19.3226
rhand -30.442 -9.9638
rfingers 7.12502
rthumb -3.74432 -39.9107
lclavicle 1.31198e-014 3.17559e-014
lhumerus 60.6084 -16.8176 87.1579
lradius 21.3953
lwrist 5.72769
lhand 5.81113 45.094
lfingers 7.12502
lthumb 31.1433 72.4681
rfemur -95.6191 -2.92394 56.5599
rtibia 30.5969
rfoot 4.5673 24.5678
rtoes 30.9729
lfemur -72.5423 -1.23516 -42.5446
ltibia 65.6309
lfoot -23.1355 -6.61989
ltoes 1.29863
1220
root 25.1291 14.9892 2.1224 680.061 -82.208 -625.725
lowerback 17.539 -1.60325 -5.22365
upperback 6.34743 -3.09162 2.87417
thorax -2.55365 -1.72092 6.62661
lowerneck -6.1178 2.1002 -1.41786
upperneck -36.4228 1.45209 2.13052
head -10.8476 -0.612125 1.1849
rclavicle 2.28602e-014 -2.32081e-014
rhumerus -3.88565 40.1945 -93.7301
rradius 101.83
rwrist -19.4522
rhand -30.6499 -10.1771
rfingers 7.12502
rthumb -3.94502 -40.1204
lclavicle 2.28602e-014 -2.32081e-014
lhumerus 60.7548 -16.8882 87.0083
lradius 21.9923
lwrist 6.40604
lhand 6.49439 46.5775
lfingers 7.12502
lthumb 31.7943 73.8245
rfemur -95.8292 -3.04844 56.6818
rtibia 30.4688
rfoot 4.99592 24.6197
rtoes 31.9088
lfemur -72.4271 -1.58216 -42.8264
ltibia 65.5457
lfoot -23.732 -5.14492
ltoes 0.538388
